# xmcd
#
# Track frame offsets:
#	300
#	13927
#	25489
#	36002
#	50576
#	64212
#	78367
#	84307
#	94927
#	106545
#	116232
#	127990
#	142267
#	152347
#	163175
#	171842
#
# Disc length: 2452 seconds
#
# Revision: 1
# Processed by: cddbd v1.5.1PL2 Copyright (c) Steve Scherf et al.
# Submitted via: audiograbber 1.82.02
#
DISCID=d3099010
DTITLE=Various Artist - Complete Country - Disk 4
DYEAR=2005
DGENRE=Country
TTITLE0=Lynn Anderson - Talking In Your Sleep
TTITLE1=Charley Pride - Louisiana Man
TTITLE2=Jim Reeves - Peace In The Valley
TTITLE3=Loretta Lynn - Coal Miner's Daughter
TTITLE4=Anne Murray - There Goes My Everything
TTITLE5=Freddy Fender - Wasted Days And Wasted Nights
TTITLE6=Jim Reeves - Have I Told You Lately That I Love You
TTITLE7=Patsy Cline - Honky Tonk Merry-Go-Round
TTITLE8=Frankie Laine - Mule Train
TTITLE9=Merle Travis - Sixteen Tons
TTITLE10=Diana Trask - It's A Man's World
TTITLE11=Jerry Lee Lewis - Careless Hands
TTITLE12=Willie Nelson - On The Road Again
TTITLE13=Hank Locklin - Send Me The Pillow You Dream On
TTITLE14=Billy Jo Spears - You're My Man
TTITLE15=Dottie West - Crazy
EXTD=
EXTT0=
EXTT1=
EXTT2=
EXTT3=
EXTT4=
EXTT5=
EXTT6=
EXTT7=
EXTT8=
EXTT9=
EXTT10=
EXTT11=
EXTT12=
EXTT13=
EXTT14=
EXTT15=
PLAYORDER=
